# xmcd CD database file
#
# Track frame offsets:
#	150
#	20345
#	37995
#	55507
#	71427
#	108100
#	132080
#	164115
#	183195
#	200977
#
# Disc length: 3187 seconds
#
# Revision: 0
# Processed by: cddbd v1.4PL0 Copyright (c) Steve Scherf et al.
# Submitted via: CDex 1.50Beta7
#
DISCID=820c710a
DTITLE=Carroll Thompson - Best Tracks
DYEAR=1996
DGENRE=Rhythmic Soul
TTITLE0=The Other Side Of Love
TTITLE1=I Go Weak
TTITLE2=Lovers And Strangers
TTITLE3=Move Me
TTITLE4=Walk Away
TTITLE5=Unity
TTITLE6=Show Some Love - Where Is The Love
TTITLE7=Where Were You
TTITLE8=A Natural Woman
TTITLE9=Rock Me Gently
EXTD=YEAR: 1996
EXTT0=
EXTT1=
EXTT2=
EXTT3=
EXTT4=
EXTT5=
EXTT6=
EXTT7=
EXTT8=
EXTT9=
PLAYORDER=
